<svg width="728" height="90" viewBox="0 0 728 90" fill="none" xmlns="http://www.w3.org/2000/svg">
<g clip-path="url(#clip0_63_1360)">
<g filter="url(#filter0_di_63_1360)">
<path d="M139.294 58.4062C137.21 60.1979 134.877 61.5729 132.294 62.5312C129.71 63.4896 127.033 63.9688 124.262 63.9688C122.137 63.9688 120.085 63.6875 118.106 63.125C116.148 62.5833 114.304 61.8125 112.575 60.8125C110.867 59.7917 109.304 58.5729 107.887 57.1562C106.471 55.7396 105.252 54.1771 104.231 52.4688C103.231 50.7396 102.45 48.8958 101.887 46.9375C101.346 44.9583 101.075 42.9062 101.075 40.7812C101.075 38.6562 101.346 36.6042 101.887 34.625C102.45 32.6458 103.231 30.8021 104.231 29.0938C105.252 27.3646 106.471 25.7917 107.887 24.375C109.304 22.9583 110.867 21.75 112.575 20.75C114.304 19.7292 116.148 18.9479 118.106 18.4062C120.085 17.8438 122.137 17.5625 124.262 17.5625C127.033 17.5625 129.71 18.0417 132.294 19C134.877 19.9375 137.21 21.3125 139.294 23.125L134.544 30.9375C133.231 29.5208 131.679 28.4375 129.887 27.6875C128.096 26.9167 126.221 26.5312 124.262 26.5312C122.283 26.5312 120.429 26.9062 118.7 27.6562C116.971 28.4062 115.46 29.4271 114.169 30.7188C112.877 31.9896 111.856 33.5 111.106 35.25C110.356 36.9792 109.981 38.8229 109.981 40.7812C109.981 42.7396 110.356 44.5833 111.106 46.3125C111.856 48.0208 112.877 49.5208 114.169 50.8125C115.46 52.1042 116.971 53.125 118.7 53.875C120.429 54.625 122.283 55 124.262 55C126.221 55 128.096 54.625 129.887 53.875C131.679 53.1042 133.231 52.0104 134.544 50.5938L139.294 58.4062ZM203.625 63H201.562L198.25 58.4062C197.438 59.1354 196.573 59.8229 195.656 60.4688C194.76 61.0938 193.812 61.6458 192.812 62.125C191.812 62.5833 190.781 62.9479 189.719 63.2188C188.677 63.4896 187.615 63.625 186.531 63.625C184.177 63.625 181.958 63.2292 179.875 62.4375C177.812 61.6458 176 60.5 174.438 59C172.896 57.4792 171.677 55.625 170.781 53.4375C169.885 51.25 169.438 48.7604 169.438 45.9688C169.438 43.3646 169.885 40.9792 170.781 38.8125C171.677 36.625 172.896 34.75 174.438 33.1875C176 31.625 177.812 30.4167 179.875 29.5625C181.958 28.6875 184.177 28.25 186.531 28.25C187.615 28.25 188.688 28.3854 189.75 28.6562C190.812 28.9271 191.844 29.3021 192.844 29.7812C193.844 30.2604 194.792 30.8229 195.688 31.4688C196.604 32.1146 197.458 32.8125 198.25 33.5625L201.562 29.5938H203.625V63ZM195.031 45.9688C195.031 44.8021 194.802 43.6771 194.344 42.5938C193.906 41.4896 193.302 40.5208 192.531 39.6875C191.76 38.8333 190.854 38.1562 189.812 37.6562C188.792 37.1354 187.698 36.875 186.531 36.875C185.365 36.875 184.26 37.0729 183.219 37.4688C182.198 37.8646 181.302 38.4479 180.531 39.2188C179.781 39.9896 179.188 40.9479 178.75 42.0938C178.312 43.2188 178.094 44.5104 178.094 45.9688C178.094 47.4271 178.312 48.7292 178.75 49.875C179.188 51 179.781 51.9479 180.531 52.7188C181.302 53.4896 182.198 54.0729 183.219 54.4688C184.26 54.8646 185.365 55.0625 186.531 55.0625C187.698 55.0625 188.792 54.8125 189.812 54.3125C190.854 53.7917 191.76 53.1146 192.531 52.2812C193.302 51.4271 193.906 50.4583 194.344 49.375C194.802 48.2708 195.031 47.1354 195.031 45.9688ZM247.488 63H238.956V29.5312H241.019L243.831 33.5C245.206 32.25 246.769 31.2917 248.519 30.625C250.269 29.9375 252.081 29.5938 253.956 29.5938H261.488V38.0938H253.956C253.06 38.0938 252.217 38.2604 251.425 38.5938C250.633 38.9271 249.946 39.3854 249.363 39.9688C248.779 40.5521 248.321 41.2396 247.988 42.0312C247.654 42.8229 247.488 43.6667 247.488 44.5625V63ZM304.131 27.1562V45.0938H313.1C314.329 45.0938 315.485 44.8646 316.569 44.4062C317.652 43.9271 318.6 43.2812 319.412 42.4688C320.225 41.6562 320.86 40.7083 321.319 39.625C321.798 38.5208 322.037 37.3542 322.037 36.125C322.037 34.8958 321.798 33.7396 321.319 32.6562C320.86 31.5521 320.225 30.5938 319.412 29.7812C318.6 28.9688 317.652 28.3333 316.569 27.875C315.485 27.3958 314.329 27.1562 313.1 27.1562H304.131ZM304.131 63H295.162V18.1875H313.1C314.746 18.1875 316.329 18.4062 317.85 18.8438C319.371 19.2604 320.787 19.8646 322.1 20.6562C323.433 21.4271 324.642 22.3646 325.725 23.4688C326.829 24.5521 327.767 25.7604 328.537 27.0938C329.329 28.4271 329.933 29.8542 330.35 31.375C330.787 32.8958 331.006 34.4792 331.006 36.125C331.006 38.5833 330.537 40.9062 329.6 43.0938C328.662 45.2604 327.381 47.1562 325.756 48.7812C324.131 50.4062 322.225 51.6875 320.037 52.625C317.871 53.5625 315.558 54.0312 313.1 54.0312H304.131V63ZM396.525 45.9688C396.525 48.4688 396.077 50.8021 395.181 52.9688C394.285 55.1146 393.067 56.9792 391.525 58.5625C389.983 60.125 388.171 61.3646 386.088 62.2812C384.025 63.1771 381.806 63.625 379.431 63.625C377.077 63.625 374.858 63.1771 372.775 62.2812C370.713 61.3646 368.9 60.125 367.338 58.5625C365.796 56.9792 364.577 55.1146 363.681 52.9688C362.785 50.8021 362.338 48.4688 362.338 45.9688C362.338 43.4271 362.785 41.0729 363.681 38.9062C364.577 36.7396 365.796 34.875 367.338 33.3125C368.9 31.7292 370.713 30.4896 372.775 29.5938C374.858 28.6979 377.077 28.25 379.431 28.25C381.806 28.25 384.025 28.6771 386.088 29.5312C388.171 30.3646 389.983 31.5625 391.525 33.125C393.067 34.6667 394.285 36.5312 395.181 38.7188C396.077 40.8854 396.525 43.3021 396.525 45.9688ZM387.931 45.9688C387.931 44.5938 387.702 43.3542 387.244 42.25C386.806 41.125 386.202 40.1667 385.431 39.375C384.66 38.5625 383.754 37.9479 382.713 37.5312C381.692 37.0938 380.598 36.875 379.431 36.875C378.265 36.875 377.16 37.0938 376.119 37.5312C375.098 37.9479 374.202 38.5625 373.431 39.375C372.681 40.1667 372.088 41.125 371.65 42.25C371.213 43.3542 370.994 44.5938 370.994 45.9688C370.994 47.2604 371.213 48.4583 371.65 49.5625C372.088 50.6667 372.681 51.625 373.431 52.4375C374.202 53.25 375.098 53.8958 376.119 54.375C377.16 54.8333 378.265 55.0625 379.431 55.0625C380.598 55.0625 381.692 54.8438 382.713 54.4062C383.754 53.9688 384.66 53.3542 385.431 52.5625C386.202 51.7708 386.806 50.8125 387.244 49.6875C387.702 48.5625 387.931 47.3229 387.931 45.9688ZM462.388 45.9688C462.388 48.4688 461.94 50.8021 461.044 52.9688C460.148 55.1146 458.929 56.9792 457.388 58.5625C455.846 60.125 454.033 61.3646 451.95 62.2812C449.888 63.1771 447.669 63.625 445.294 63.625C442.94 63.625 440.721 63.1771 438.638 62.2812C436.575 61.3646 434.763 60.125 433.2 58.5625C431.658 56.9792 430.44 55.1146 429.544 52.9688C428.648 50.8021 428.2 48.4688 428.2 45.9688C428.2 43.4271 428.648 41.0729 429.544 38.9062C430.44 36.7396 431.658 34.875 433.2 33.3125C434.763 31.7292 436.575 30.4896 438.638 29.5938C440.721 28.6979 442.94 28.25 445.294 28.25C447.669 28.25 449.888 28.6771 451.95 29.5312C454.033 30.3646 455.846 31.5625 457.388 33.125C458.929 34.6667 460.148 36.5312 461.044 38.7188C461.94 40.8854 462.388 43.3021 462.388 45.9688ZM453.794 45.9688C453.794 44.5938 453.565 43.3542 453.106 42.25C452.669 41.125 452.065 40.1667 451.294 39.375C450.523 38.5625 449.617 37.9479 448.575 37.5312C447.554 37.0938 446.46 36.875 445.294 36.875C444.127 36.875 443.023 37.0938 441.981 37.5312C440.96 37.9479 440.065 38.5625 439.294 39.375C438.544 40.1667 437.95 41.125 437.513 42.25C437.075 43.3542 436.856 44.5938 436.856 45.9688C436.856 47.2604 437.075 48.4583 437.513 49.5625C437.95 50.6667 438.544 51.625 439.294 52.4375C440.065 53.25 440.96 53.8958 441.981 54.375C443.023 54.8333 444.127 55.0625 445.294 55.0625C446.46 55.0625 447.554 54.8438 448.575 54.4062C449.617 53.9688 450.523 53.3542 451.294 52.5625C452.065 51.7708 452.669 50.8125 453.106 49.6875C453.565 48.5625 453.794 47.3229 453.794 45.9688ZM504.5 63H495.906V16.2188H504.5V63ZM547.894 75.75V67.1562L552.644 67.2188C553.477 67.2188 554.279 67.0833 555.05 66.8125C555.821 66.5417 556.529 66.1667 557.175 65.6875C557.842 65.2083 558.425 64.6354 558.925 63.9688C559.425 63.3229 559.831 62.6146 560.144 61.8438C559.206 62.2396 558.248 62.6354 557.269 63.0312C556.31 63.4271 555.342 63.625 554.362 63.625C552.3 63.625 550.362 63.2604 548.55 62.5312C546.737 61.8021 545.144 60.7708 543.769 59.4375C542.415 58.0833 541.342 56.4479 540.55 54.5312C539.779 52.5938 539.394 50.4271 539.394 48.0312V29.5312H547.894V48.0312C547.894 49.2188 548.06 50.2604 548.394 51.1562C548.748 52.0312 549.217 52.7708 549.8 53.375C550.383 53.9583 551.06 54.3958 551.831 54.6875C552.623 54.9792 553.467 55.125 554.362 55.125C555.237 55.125 556.06 54.9271 556.831 54.5312C557.623 54.1146 558.31 53.5729 558.894 52.9062C559.477 52.2396 559.935 51.4896 560.269 50.6562C560.602 49.8021 560.769 48.9271 560.769 48.0312V29.5312H569.362V58.7812C569.342 61.1354 568.883 63.3438 567.987 65.4062C567.092 67.4688 565.862 69.2708 564.3 70.8125C562.758 72.3542 560.956 73.5729 558.894 74.4688C556.831 75.3646 554.623 75.8125 552.269 75.8125L547.894 75.75Z" fill="#B0521D"/>
<path d="M139.294 58.4062L141.25 60.6808L143.179 59.0218L141.857 56.8477L139.294 58.4062ZM132.294 62.5312L131.25 59.7186L132.294 62.5312ZM118.106 63.125L118.926 60.2393L118.916 60.2364L118.906 60.2336L118.106 63.125ZM112.575 60.8125L111.036 63.3877L111.055 63.3988L111.073 63.4095L112.575 60.8125ZM104.231 52.4688L101.634 53.9706L101.645 53.9892L101.656 54.0076L104.231 52.4688ZM101.887 46.9375L98.9939 47.7294L98.9989 47.7476L99.0041 47.7657L101.887 46.9375ZM101.887 34.625L99.0018 33.8048L98.9978 33.8189L98.9939 33.8331L101.887 34.625ZM104.231 29.0938L101.648 27.5686L101.642 27.5782L104.231 29.0938ZM112.575 20.75L114.091 23.3391L114.1 23.3334L112.575 20.75ZM118.106 18.4062L118.906 21.2977L118.916 21.2949L118.926 21.292L118.106 18.4062ZM132.294 19L131.25 21.8127L131.26 21.8164L131.27 21.82L132.294 19ZM139.294 23.125L141.857 24.6835L143.171 22.522L141.263 20.8617L139.294 23.125ZM134.544 30.9375L132.343 32.9764L135.043 35.8907L137.107 32.496L134.544 30.9375ZM129.887 27.6875L128.702 30.4433L128.715 30.4491L128.729 30.4548L129.887 27.6875ZM114.169 30.7188L116.273 32.8572L116.281 32.8487L116.29 32.8401L114.169 30.7188ZM111.106 35.25L113.859 36.4438L113.864 36.4318L111.106 35.25ZM111.106 46.3125L108.354 47.5063L108.359 47.5185L111.106 46.3125ZM114.169 50.8125L112.047 52.9338L114.169 50.8125ZM129.887 53.875L131.046 56.6423L131.06 56.6366L131.073 56.6308L129.887 53.875ZM134.544 50.5938L137.107 49.0352L135.043 45.6405L132.343 48.5549L134.544 50.5938ZM137.338 56.1317C135.525 57.6906 133.501 58.8837 131.25 59.7186L133.337 65.3439C136.253 64.2622 138.896 62.7052 141.25 60.6808L137.338 56.1317ZM131.25 59.7186C129.003 60.5523 126.679 60.9688 124.262 60.9688V66.9688C127.387 66.9688 130.418 66.4269 133.337 65.3439L131.25 59.7186ZM124.262 60.9688C122.406 60.9688 120.63 60.7235 118.926 60.2393L117.286 66.0107C119.541 66.6515 121.869 66.9688 124.262 66.9688V60.9688ZM118.906 60.2336C117.189 59.7587 115.582 59.0857 114.077 58.2155L111.073 63.4095C113.027 64.5393 115.107 65.408 117.306 66.0164L118.906 60.2336ZM114.114 58.2373C112.619 57.344 111.252 56.2781 110.009 55.0349L105.766 59.2776C107.356 60.8678 109.114 62.2393 111.036 63.3877L114.114 58.2373ZM110.009 55.0349C108.766 53.7918 107.7 52.4247 106.806 50.9299L101.656 54.0076C102.804 55.9295 104.176 57.6874 105.766 59.2776L110.009 55.0349ZM106.828 50.9669C105.953 49.454 105.267 47.837 104.771 46.1093L99.0041 47.7657C99.6328 49.9547 100.509 52.0252 101.634 53.9706L106.828 50.9669ZM104.781 46.1456C104.313 44.4335 104.075 42.6483 104.075 40.7812H98.075C98.075 43.1642 98.3791 45.4831 98.9939 47.7294L104.781 46.1456ZM104.075 40.7812C104.075 38.9142 104.313 37.129 104.781 35.4169L98.9939 33.8331C98.3791 36.0794 98.075 38.3983 98.075 40.7812H104.075ZM104.773 35.4452C105.269 33.6997 105.953 32.0908 106.82 30.6093L101.642 27.5782C100.509 29.5134 99.6307 31.5919 99.0018 33.8048L104.773 35.4452ZM106.815 30.6189C107.707 29.1066 108.771 27.7341 110.009 26.4963L105.766 22.2537C104.171 23.8493 102.797 25.6226 101.648 27.5686L106.815 30.6189ZM110.009 26.4963C111.247 25.2586 112.606 24.2081 114.091 23.339L111.059 18.161C109.127 19.2919 107.362 20.6581 105.766 22.2537L110.009 26.4963ZM114.1 23.3334C115.599 22.4483 117.199 21.7699 118.906 21.2977L117.306 15.5148C115.097 16.126 113.009 17.01 111.05 18.1666L114.1 23.3334ZM118.926 21.292C120.63 20.8077 122.406 20.5625 124.262 20.5625V14.5625C121.869 14.5625 119.541 14.8798 117.286 15.5205L118.926 21.292ZM124.262 20.5625C126.679 20.5625 129.003 20.979 131.25 21.8127L133.337 16.1873C130.418 15.1044 127.387 14.5625 124.262 14.5625V20.5625ZM131.27 21.82C133.505 22.6311 135.518 23.8168 137.325 25.3883L141.263 20.8617C138.903 18.8082 136.249 17.2439 133.317 16.18L131.27 21.82ZM136.73 21.5665L131.98 29.379L137.107 32.496L141.857 24.6835L136.73 21.5665ZM136.744 28.8986C135.139 27.1656 133.231 25.8347 131.046 24.9202L128.729 30.4548C130.128 31.0403 131.324 31.8761 132.343 32.9764L136.744 28.8986ZM131.073 24.9317C128.905 23.9991 126.627 23.5312 124.262 23.5312V29.5312C125.815 29.5312 127.286 29.8342 128.702 30.4433L131.073 24.9317ZM124.262 23.5312C121.894 23.5312 119.631 23.9824 117.506 24.904L119.894 30.4085C121.227 29.8301 122.673 29.5312 124.262 29.5312V23.5312ZM117.506 24.904C115.442 25.7992 113.614 27.0305 112.047 28.5974L116.29 32.8401C117.306 31.8237 118.499 31.0133 119.894 30.4085L117.506 24.904ZM112.065 28.5803C110.481 30.1383 109.244 31.9784 108.349 34.0682L113.864 36.4318C114.468 35.0216 115.273 33.8409 116.273 32.8572L112.065 28.5803ZM108.354 34.0562C107.434 36.1769 106.981 38.4286 106.981 40.7812H112.981C112.981 39.2172 113.278 37.7814 113.859 36.4438L108.354 34.0562ZM106.981 40.7812C106.981 43.1339 107.434 45.3856 108.354 47.5063L113.859 45.1187C113.278 43.7811 112.981 42.3453 112.981 40.7812H106.981ZM108.359 47.5185C109.256 49.5607 110.486 51.3729 112.047 52.9338L116.29 48.6912C115.268 47.6688 114.457 46.481 113.853 45.1065L108.359 47.5185ZM112.047 52.9338C113.614 54.5008 115.442 55.732 117.506 56.6273L119.894 51.1227C118.499 50.518 117.306 49.7076 116.29 48.6912L112.047 52.9338ZM117.506 56.6273C119.631 57.5488 121.894 58 124.262 58V52C122.673 52 121.227 51.7012 119.894 51.1227L117.506 56.6273ZM124.262 58C126.615 58 128.884 57.5472 131.046 56.6423L128.729 51.1077C127.307 51.7028 125.826 52 124.262 52V58ZM131.073 56.6308C133.246 55.6961 135.144 54.3596 136.744 52.6326L132.343 48.5549C131.318 49.6612 130.113 50.5122 128.702 51.1192L131.073 56.6308ZM131.98 52.1523L136.73 59.9648L141.857 56.8477L137.107 49.0352L131.98 52.1523ZM203.625 63V66H206.625V63H203.625ZM201.562 63L199.129 64.7547L200.027 66H201.562V63ZM198.25 58.4062L200.683 56.6516L198.731 53.9438L196.246 56.1735L198.25 58.4062ZM195.656 60.4688L197.373 62.9292L197.384 62.9212L195.656 60.4688ZM192.812 62.125L194.062 64.8522L194.086 64.8415L194.109 64.8304L192.812 62.125ZM189.719 63.2188L188.978 60.3117L188.971 60.3135L188.964 60.3153L189.719 63.2188ZM179.875 62.4375L178.8 65.2383L178.809 65.2419L179.875 62.4375ZM174.438 59L172.331 61.1357L172.345 61.15L172.36 61.1642L174.438 59ZM170.781 38.8125L173.554 39.9588L173.557 39.9494L170.781 38.8125ZM174.438 33.1875L172.316 31.0662L172.309 31.0733L172.302 31.0805L174.438 33.1875ZM179.875 29.5625L181.023 32.3342L181.03 32.3313L181.037 32.3284L179.875 29.5625ZM195.688 31.4688L193.933 33.9023L193.946 33.9118L193.96 33.9212L195.688 31.4688ZM198.25 33.5625L196.187 35.7404L198.506 37.9376L200.553 35.4848L198.25 33.5625ZM201.562 29.5938V26.5938H200.159L199.259 27.6714L201.562 29.5938ZM203.625 29.5938H206.625V26.5938H203.625V29.5938ZM194.344 42.5938L191.555 43.6988L191.567 43.7309L191.581 43.7627L194.344 42.5938ZM192.531 39.6875L190.304 41.6974L190.316 41.7111L190.329 41.7246L192.531 39.6875ZM189.812 37.6562L188.449 40.3285L188.482 40.3451L188.514 40.3608L189.812 37.6562ZM183.219 37.4688L182.153 34.6644L182.144 34.668L182.134 34.6717L183.219 37.4688ZM180.531 39.2188L178.41 37.0974L178.395 37.112L178.381 37.1267L180.531 39.2188ZM178.75 42.0938L181.546 43.1811L181.549 43.1725L181.553 43.1639L178.75 42.0938ZM178.75 49.875L175.947 50.9451L175.951 50.9537L175.954 50.9623L178.75 49.875ZM180.531 52.7188L178.381 54.8108L178.395 54.8255L178.41 54.8401L180.531 52.7188ZM183.219 54.4688L182.134 57.2658L182.144 57.2695L182.153 57.2731L183.219 54.4688ZM189.812 54.3125L191.132 57.0067L191.143 57.0013L191.154 56.9958L189.812 54.3125ZM192.531 52.2812L194.734 54.3184L194.746 54.3048L194.758 54.2911L192.531 52.2812ZM194.344 49.375L191.573 48.2249L191.567 48.2382L191.562 48.2516L194.344 49.375ZM203.625 60H201.562V66H203.625V60ZM203.996 61.2453L200.683 56.6516L195.817 60.1609L199.129 64.7547L203.996 61.2453ZM196.246 56.1735C195.524 56.822 194.751 57.4364 193.928 58.0163L197.384 62.9212C198.394 62.2094 199.351 61.4488 200.254 60.639L196.246 56.1735ZM193.94 58.0084C193.179 58.539 192.372 59.0095 191.516 59.4196L194.109 64.8304C195.253 64.2822 196.342 63.6485 197.373 62.9291L193.94 58.0084ZM191.563 59.3978C190.726 59.7813 189.865 60.0856 188.978 60.3117L190.46 66.1258C191.698 65.8103 192.899 65.3854 194.062 64.8522L191.563 59.3978ZM188.964 60.3153C188.17 60.5216 187.362 60.625 186.531 60.625V66.625C187.868 66.625 189.184 66.4576 190.474 66.1222L188.964 60.3153ZM186.531 60.625C184.521 60.625 182.665 60.2883 180.941 59.6331L178.809 65.2419C181.252 66.17 183.834 66.625 186.531 66.625V60.625ZM180.95 59.6367C179.253 58.9854 177.783 58.0533 176.515 56.8358L172.36 61.1642C174.217 62.9467 176.372 64.3063 178.8 65.2383L180.95 59.6367ZM176.544 56.8643C175.316 55.6529 174.314 54.148 173.557 52.3006L168.005 54.5744C169.04 57.102 170.475 59.3054 172.331 61.1357L176.544 56.8643ZM173.557 52.3006C172.834 50.533 172.438 48.4398 172.438 45.9688H166.438C166.438 49.081 166.937 51.967 168.005 54.5744L173.557 52.3006ZM172.438 45.9688C172.438 43.7143 172.824 41.7237 173.554 39.9588L168.009 37.6662C166.947 40.2346 166.438 43.0149 166.438 45.9688H172.438ZM173.557 39.9494C174.317 38.0959 175.327 36.5577 176.573 35.2945L172.302 31.0805C170.465 32.9423 169.038 35.1541 168.005 37.6756L173.557 39.9494ZM176.559 35.3088C177.84 34.0279 179.321 33.0392 181.023 32.3342L178.727 26.7908C176.304 27.7941 174.16 29.2221 172.316 31.0662L176.559 35.3088ZM181.037 32.3284C182.737 31.6144 184.559 31.25 186.531 31.25V25.25C183.795 25.25 181.18 25.7606 178.713 26.7966L181.037 32.3284ZM186.531 31.25C187.362 31.25 188.186 31.3534 189.009 31.5633L190.491 25.7492C189.189 25.4174 187.868 25.25 186.531 25.25V31.25ZM189.009 31.5633C189.878 31.7848 190.723 32.0919 191.547 32.4867L194.14 27.0758C192.964 26.5123 191.747 26.0694 190.491 25.7492L189.009 31.5633ZM191.547 32.4867C192.388 32.8893 193.182 33.3609 193.933 33.9023L197.442 29.0352C196.401 28.2849 195.3 27.6315 194.14 27.0758L191.547 32.4867ZM193.96 33.9212C194.761 34.4861 195.503 35.0926 196.187 35.7404L200.313 31.3846C199.414 30.5324 198.447 29.7431 197.415 29.0163L193.96 33.9212ZM200.553 35.4848L203.866 31.5161L199.259 27.6714L195.947 31.6402L200.553 35.4848ZM201.562 32.5938H203.625V26.5938H201.562V32.5938ZM200.625 29.5938V63H206.625V29.5938H200.625ZM198.031 45.9688C198.031 44.3971 197.72 42.8749 197.107 41.4248L191.581 43.7627C191.884 44.4793 192.031 45.2071 192.031 45.9688H198.031ZM197.133 41.4887C196.565 40.0564 195.767 38.768 194.734 37.6504L190.329 41.7246C190.837 42.2737 191.247 42.9228 191.555 43.6988L197.133 41.4887ZM194.758 37.6776C193.725 36.5324 192.503 35.6199 191.111 34.9517L188.514 40.3608C189.206 40.6926 189.796 41.1343 190.304 41.6974L194.758 37.6776ZM191.176 34.984C189.725 34.2437 188.163 33.875 186.531 33.875V39.875C187.233 39.875 187.858 40.0271 188.449 40.3285L191.176 34.984ZM186.531 33.875C185.018 33.875 183.551 34.1332 182.153 34.6644L184.284 40.2731C184.97 40.0126 185.711 39.875 186.531 39.875V33.875ZM182.134 34.6717C180.726 35.2176 179.477 36.0304 178.41 37.0974L182.653 41.3401C183.127 40.8654 183.67 40.5116 184.303 40.2658L182.134 34.6717ZM178.381 37.1267C177.309 38.2285 176.51 39.5496 175.947 41.0236L181.553 43.1639C181.865 42.3462 182.253 41.7506 182.681 41.3108L178.381 37.1267ZM175.954 41.0064C175.357 42.542 175.094 44.2138 175.094 45.9688H181.094C181.094 44.807 181.268 43.8955 181.546 43.1811L175.954 41.0064ZM175.094 45.9688C175.094 47.7253 175.357 49.3997 175.947 50.9451L181.553 48.8049C181.268 48.0586 181.094 47.1289 181.094 45.9688H175.094ZM175.954 50.9623C176.519 52.4163 177.318 53.7185 178.381 54.8108L182.681 50.6267C182.244 50.1774 181.856 49.5837 181.546 48.7877L175.954 50.9623ZM178.41 54.8401C179.477 55.9071 180.726 56.7199 182.134 57.2658L184.303 51.6717C183.67 51.4259 183.127 51.0721 182.653 50.5974L178.41 54.8401ZM182.153 57.2731C183.551 57.8043 185.018 58.0625 186.531 58.0625V52.0625C185.711 52.0625 184.97 51.9249 184.284 51.6644L182.153 57.2731ZM186.531 58.0625C188.143 58.0625 189.689 57.7133 191.132 57.0067L188.493 51.6183C187.894 51.9117 187.253 52.0625 186.531 52.0625V58.0625ZM191.154 56.9958C192.511 56.3175 193.711 55.4241 194.734 54.3184L190.329 50.2441C189.81 50.805 189.198 51.2659 188.471 51.6292L191.154 56.9958ZM194.758 54.2911C195.768 53.1721 196.559 51.9023 197.125 50.4984L191.562 48.2516C191.254 49.0144 190.836 49.682 190.304 50.2714L194.758 54.2911ZM197.115 50.5251C197.72 49.0656 198.031 47.54 198.031 45.9688H192.031C192.031 46.7308 191.884 47.476 191.573 48.2249L197.115 50.5251ZM247.488 63V66H250.488V63H247.488ZM238.956 63H235.956V66H238.956V63ZM238.956 29.5312V26.5312H235.956V29.5312H238.956ZM241.019 29.5312L243.466 27.7967L242.57 26.5312H241.019V29.5312ZM243.831 33.5L241.384 35.2346L243.342 37.9988L245.849 35.7198L243.831 33.5ZM248.519 30.625L249.587 33.4285L249.601 33.4229L249.616 33.4173L248.519 30.625ZM261.488 29.5938H264.488V26.5938H261.488V29.5938ZM261.488 38.0938V41.0938H264.488V38.0938H261.488ZM251.425 38.5938L250.261 35.8288L251.425 38.5938ZM247.488 60H238.956V66H247.488V60ZM241.956 63V29.5312H235.956V63H241.956ZM238.956 32.5312H241.019V26.5312H238.956V32.5312ZM238.571 31.2658L241.384 35.2346L246.279 31.7654L243.466 27.7967L238.571 31.2658ZM245.849 35.7198C246.945 34.724 248.184 33.9627 249.587 33.4285L247.451 27.8215C245.353 28.6206 243.468 29.776 241.813 31.2802L245.849 35.7198ZM249.616 33.4173C251.017 32.8666 252.458 32.5938 253.956 32.5938V26.5938C251.705 26.5938 249.52 27.0084 247.422 27.8327L249.616 33.4173ZM253.956 32.5938H261.488V26.5938H253.956V32.5938ZM258.488 29.5938V38.0938H264.488V29.5938H258.488ZM261.488 35.0938H253.956V41.0938H261.488V35.0938ZM253.956 35.0938C252.678 35.0938 251.437 35.3337 250.261 35.8288L252.589 41.3587C252.997 41.1871 253.443 41.0938 253.956 41.0938V35.0938ZM250.261 35.8288C249.127 36.3065 248.11 36.9784 247.241 37.8474L251.484 42.0901C251.781 41.7924 252.14 41.5477 252.589 41.3587L250.261 35.8288ZM247.241 37.8474C246.372 38.7165 245.7 39.7328 245.223 40.8671L250.752 43.1954C250.941 42.7464 251.186 42.3877 251.484 42.0901L247.241 37.8474ZM245.223 40.8671C244.727 42.043 244.488 43.2843 244.488 44.5625H250.488C250.488 44.049 250.581 43.6028 250.752 43.1954L245.223 40.8671ZM244.488 44.5625V63H250.488V44.5625H244.488ZM304.131 27.1562V24.1562H301.131V27.1562H304.131ZM304.131 45.0938H301.131V48.0938H304.131V45.0938ZM316.569 44.4062L317.738 47.1692L317.76 47.1597L317.782 47.1499L316.569 44.4062ZM321.319 39.625L318.567 38.4307L318.561 38.4434L318.556 38.4561L321.319 39.625ZM321.319 32.6562L318.548 33.8064L318.561 33.8382L318.575 33.8698L321.319 32.6562ZM316.569 27.875L315.355 30.6186L315.377 30.6284L315.4 30.6379L316.569 27.875ZM304.131 63V66H307.131V63H304.131ZM295.162 63H292.162V66H295.162V63ZM295.162 18.1875V15.1875H292.162V18.1875H295.162ZM317.85 18.8438L317.021 21.7268L317.039 21.7321L317.057 21.7371L317.85 18.8438ZM322.1 20.6562L320.551 23.2251L320.574 23.2395L320.598 23.2535L322.1 20.6562ZM325.725 23.4688L323.584 25.5698L323.604 25.5902L323.624 25.6102L325.725 23.4688ZM328.537 27.0938L325.94 28.5953L325.949 28.6104L325.958 28.6254L328.537 27.0938ZM330.35 31.375L327.457 32.1677L327.462 32.1861L327.467 32.2044L330.35 31.375ZM329.6 43.0938L332.353 44.2851L332.357 44.2755L329.6 43.0938ZM320.037 52.625L318.856 49.8675L318.846 49.8717L320.037 52.625ZM304.131 54.0312V51.0312H301.131V54.0312H304.131ZM301.131 27.1562V45.0938H307.131V27.1562H301.131ZM304.131 48.0938H313.1V42.0938H304.131V48.0938ZM313.1 48.0938C314.712 48.0938 316.268 47.791 317.738 47.1692L315.4 41.6433C314.703 41.9382 313.946 42.0938 313.1 42.0938V48.0938ZM317.782 47.1499C319.193 46.5257 320.452 45.6723 321.534 44.5901L317.291 40.3474C316.748 40.8902 316.111 41.3284 315.355 41.6626L317.782 47.1499ZM321.534 44.5901C322.626 43.4978 323.476 42.2244 324.082 40.7939L318.556 38.4561C318.244 39.1922 317.824 39.8147 317.291 40.3474L321.534 44.5901ZM324.071 40.8193C324.717 39.3301 325.037 37.7561 325.037 36.125H319.037C319.037 36.9522 318.879 37.7116 318.567 38.4307L324.071 40.8193ZM325.037 36.125C325.037 34.494 324.717 32.9228 324.062 31.4427L318.575 33.8698C318.879 34.5564 319.037 35.2977 319.037 36.125H325.037ZM324.09 31.5061C323.487 30.0538 322.636 28.7617 321.534 27.6599L317.291 31.9026C317.814 32.4258 318.234 33.0504 318.548 33.8064L324.09 31.5061ZM321.534 27.6599C320.442 26.5677 319.168 25.7173 317.738 25.1121L315.4 30.6379C316.136 30.9493 316.758 31.3698 317.291 31.9026L321.534 27.6599ZM317.782 25.1314C316.302 24.4768 314.731 24.1562 313.1 24.1562V30.1562C313.927 30.1562 314.669 30.3149 315.355 30.6186L317.782 25.1314ZM313.1 24.1562H304.131V30.1562H313.1V24.1562ZM304.131 60H295.162V66H304.131V60ZM298.162 63V18.1875H292.162V63H298.162ZM295.162 21.1875H313.1V15.1875H295.162V21.1875ZM313.1 21.1875C314.477 21.1875 315.78 21.3699 317.021 21.7268L318.679 15.9607C316.878 15.4426 315.015 15.1875 313.1 15.1875V21.1875ZM317.057 21.7371C318.32 22.083 319.481 22.58 320.551 23.2251L323.649 18.0874C322.094 17.1492 320.422 16.4378 318.643 15.9504L317.057 21.7371ZM320.598 23.2535C321.696 23.888 322.689 24.6583 323.584 25.5698L327.866 21.3677C326.594 20.0709 325.171 18.9662 323.602 18.059L320.598 23.2535ZM323.624 25.6102C324.535 26.5045 325.306 27.4977 325.94 28.5953L331.135 25.5922C330.228 24.0231 329.123 22.5997 327.826 21.3273L323.624 25.6102ZM325.958 28.6254C326.61 29.7237 327.11 30.9017 327.457 32.1677L333.243 30.5823C332.757 28.8066 332.048 27.1305 331.117 25.5621L325.958 28.6254ZM327.467 32.2044C327.824 33.445 328.006 34.7485 328.006 36.125H334.006C334.006 34.2099 333.751 32.3467 333.233 30.5456L327.467 32.2044ZM328.006 36.125C328.006 38.1907 327.615 40.1103 326.843 41.912L332.357 44.2755C333.46 41.7022 334.006 38.9759 334.006 36.125H328.006ZM326.847 41.9024C326.055 43.7317 324.985 45.3097 323.635 46.6599L327.878 50.9026C329.777 49.0028 331.27 46.7891 332.353 44.2851L326.847 41.9024ZM323.635 46.6599C322.289 48.0054 320.705 49.075 318.856 49.8676L321.219 55.3824C323.745 54.3 325.973 52.8071 327.878 50.9026L323.635 46.6599ZM318.846 49.8717C317.071 50.6397 315.166 51.0312 313.1 51.0312V57.0312C315.951 57.0312 318.671 56.4853 321.229 55.3783L318.846 49.8717ZM313.1 51.0312H304.131V57.0312H313.1V51.0312ZM301.131 54.0312V63H307.131V54.0312H301.131ZM395.181 52.9688L397.95 54.1245L397.954 54.115L395.181 52.9688ZM391.525 58.5625L393.661 60.6695L393.668 60.6625L393.674 60.6553L391.525 58.5625ZM386.088 62.2812L387.283 65.0329L387.289 65.0301L387.296 65.0272L386.088 62.2812ZM372.775 62.2812L371.557 65.0227L371.573 65.0301L371.59 65.0373L372.775 62.2812ZM367.338 58.5625L365.188 60.6553L365.202 60.6697L365.216 60.6838L367.338 58.5625ZM363.681 52.9688L360.909 54.115L360.913 54.1245L363.681 52.9688ZM363.681 38.9062L360.909 37.76L363.681 38.9062ZM367.338 33.3125L365.202 31.2053L365.202 31.2055L367.338 33.3125ZM372.775 29.5938L371.59 26.8377L371.58 26.8421L372.775 29.5938ZM386.088 29.5312L384.94 32.303L384.956 32.3099L384.973 32.3167L386.088 29.5312ZM391.525 33.125L389.39 35.232L389.397 35.2392L389.404 35.2463L391.525 33.125ZM395.181 38.7188L392.405 39.8557L392.409 39.865L395.181 38.7188ZM387.244 42.25L384.448 43.3373L384.46 43.3689L384.473 43.4001L387.244 42.25ZM385.431 39.375L383.255 41.4398L383.268 41.4539L383.282 41.4678L385.431 39.375ZM382.713 37.5312L381.531 40.2887L381.564 40.3031L381.598 40.3167L382.713 37.5312ZM376.119 37.5312L377.252 40.3088L377.267 40.3031L377.28 40.2972L376.119 37.5312ZM373.431 39.375L371.255 37.3102L371.253 37.3118L373.431 39.375ZM371.65 42.25L374.439 43.3551L374.443 43.3462L374.446 43.3373L371.65 42.25ZM373.431 52.4375L371.227 54.4723L371.241 54.4874L371.255 54.5023L373.431 52.4375ZM376.119 54.375L374.844 57.0907L374.877 57.1062L374.911 57.1209L376.119 54.375ZM382.713 54.4062L381.551 51.6403L381.541 51.6445L381.531 51.6488L382.713 54.4062ZM387.244 49.6875L384.465 48.5556L384.456 48.5778L384.448 48.6002L387.244 49.6875ZM393.525 45.9688C393.525 48.1018 393.145 50.0429 392.409 51.8225L397.954 54.115C399.01 51.5613 399.525 48.8357 399.525 45.9688H393.525ZM392.413 51.813C391.655 53.6287 390.64 55.1709 389.376 56.4697L393.674 60.6553C395.493 58.7874 396.916 56.6004 397.95 54.1245L392.413 51.813ZM389.39 56.4555C388.124 57.7384 386.629 58.7654 384.879 59.5353L387.296 65.0272C389.713 63.9637 391.843 62.5116 393.661 60.6695L389.39 56.4555ZM384.892 59.5296C383.228 60.2525 381.419 60.625 379.431 60.625V66.625C382.194 66.625 384.822 66.1017 387.283 65.0329L384.892 59.5296ZM379.431 60.625C377.469 60.625 375.655 60.254 373.96 59.5252L371.59 65.0373C374.062 66.1002 376.685 66.625 379.431 66.625V60.625ZM373.993 59.5398C372.26 58.7694 370.755 57.7377 369.459 56.4412L365.216 60.6838C367.045 62.5123 369.165 63.9597 371.557 65.0227L373.993 59.5398ZM369.487 56.4697C368.222 55.1709 367.208 53.6287 366.45 51.813L360.913 54.1245C361.946 56.6004 363.369 58.7874 365.188 60.6553L369.487 56.4697ZM366.454 51.8225C365.718 50.0429 365.338 48.1018 365.338 45.9688H359.338C359.338 48.8357 359.853 51.5613 360.909 54.115L366.454 51.8225ZM365.338 45.9688C365.338 43.7871 365.72 41.8261 366.454 40.0525L360.909 37.76C359.851 40.3197 359.338 43.0671 359.338 45.9688H365.338ZM366.454 40.0525C367.211 38.2196 368.222 36.6876 369.473 35.4195L365.202 31.2055C363.37 33.0624 361.943 35.2596 360.909 37.76L366.454 40.0525ZM369.473 35.4197C370.763 34.1123 372.255 33.0902 373.97 32.3454L371.58 26.8421C369.17 27.889 367.037 29.346 365.202 31.2053L369.473 35.4197ZM373.96 32.3498C375.655 31.621 377.469 31.25 379.431 31.25V25.25C376.685 25.25 374.062 25.7748 371.59 26.8377L373.96 32.3498ZM379.431 31.25C381.438 31.25 383.264 31.609 384.94 32.303L387.235 26.7595C384.786 25.7452 382.175 25.25 379.431 25.25V31.25ZM384.973 32.3167C386.682 33.0001 388.145 33.9702 389.39 35.232L393.661 31.018C391.822 29.1548 389.66 27.7291 387.202 26.7458L384.973 32.3167ZM389.404 35.2463C390.641 36.4836 391.647 38.0052 392.405 39.8557L397.957 37.5818C396.924 35.0573 395.492 32.8497 393.646 31.0037L389.404 35.2463ZM392.409 39.865C393.135 41.6217 393.525 43.6417 393.525 45.9688H399.525C399.525 42.9625 399.019 40.1492 397.954 37.5725L392.409 39.865ZM390.931 45.9688C390.931 44.2578 390.645 42.6192 390.015 41.0999L384.473 43.4001C384.759 44.0891 384.931 44.9297 384.931 45.9688H390.931ZM390.04 41.1627C389.47 39.6974 388.657 38.3879 387.581 37.2822L383.282 41.4678C383.747 41.9454 384.143 42.5526 384.448 43.3373L390.04 41.1627ZM387.608 37.3102C386.538 36.1831 385.27 35.323 383.827 34.7458L381.598 40.3167C382.239 40.5729 382.783 40.9419 383.255 41.4398L387.608 37.3102ZM383.894 34.7738C382.481 34.1682 380.983 33.875 379.431 33.875V39.875C380.213 39.875 380.902 40.0193 381.531 40.2887L383.894 34.7738ZM379.431 33.875C377.879 33.875 376.379 34.1683 374.957 34.7653L377.28 40.2972C377.942 40.0192 378.65 39.875 379.431 39.875V33.875ZM374.985 34.7537C373.564 35.3339 372.314 36.1938 371.255 37.3102L375.608 41.4398C376.09 40.9312 376.632 40.562 377.252 40.3088L374.985 34.7537ZM371.253 37.3118C370.209 38.4143 369.417 39.7142 368.854 41.1627L374.446 43.3373C374.758 42.5358 375.154 41.919 375.609 41.4382L371.253 37.3118ZM368.861 41.1449C368.264 42.6517 367.994 44.2743 367.994 45.9688H373.994C373.994 44.9132 374.161 44.0566 374.439 43.3551L368.861 41.1449ZM367.994 45.9688C367.994 47.6055 368.272 49.182 368.861 50.6676L374.439 48.4574C374.153 47.7347 373.994 46.9153 373.994 45.9688H367.994ZM368.861 50.6676C369.424 52.0894 370.208 53.369 371.227 54.4723L375.636 50.4027C375.154 49.881 374.751 49.2439 374.439 48.4574L368.861 50.6676ZM371.255 54.5023C372.285 55.588 373.487 56.4538 374.844 57.0907L377.393 51.6593C376.709 51.3379 376.119 50.912 375.608 50.3727L371.255 54.5023ZM374.911 57.1209C376.343 57.7511 377.859 58.0625 379.431 58.0625V52.0625C378.67 52.0625 377.978 51.9156 377.327 51.6291L374.911 57.1209ZM379.431 58.0625C380.983 58.0625 382.481 57.7692 383.894 57.1637L381.531 51.6488C380.902 51.9183 380.213 52.0625 379.431 52.0625V58.0625ZM383.874 57.1722C385.278 56.5824 386.523 55.7419 387.581 54.6553L383.282 50.4697C382.798 50.9664 382.23 51.3551 381.551 51.6403L383.874 57.1722ZM387.581 54.6553C388.657 53.5496 389.47 52.2401 390.04 50.7748L384.448 48.6002C384.143 49.3849 383.747 49.9921 383.282 50.4697L387.581 54.6553ZM390.022 50.8194C390.643 49.296 390.931 47.6665 390.931 45.9688H384.931C384.931 46.9793 384.762 47.829 384.465 48.5556L390.022 50.8194ZM461.044 52.9688L463.812 54.1245L463.816 54.115L461.044 52.9688ZM457.388 58.5625L459.523 60.6695L459.53 60.6625L459.537 60.6553L457.388 58.5625ZM451.95 62.2812L453.145 65.0329L453.152 65.0301L453.158 65.0272L451.95 62.2812ZM438.638 62.2812L437.419 65.0227L437.436 65.0301L437.452 65.0373L438.638 62.2812ZM433.2 58.5625L431.051 60.6553L431.065 60.6697L431.079 60.6838L433.2 58.5625ZM429.544 52.9688L426.771 54.115L426.775 54.1245L429.544 52.9688ZM429.544 38.9062L426.771 37.76L429.544 38.9062ZM433.2 33.3125L431.065 31.2053L431.065 31.2055L433.2 33.3125ZM438.638 29.5938L437.452 26.8377L437.442 26.8421L438.638 29.5938ZM451.95 29.5312L450.802 32.303L450.819 32.3099L450.836 32.3167L451.95 29.5312ZM457.388 33.125L455.252 35.232L455.259 35.2392L455.266 35.2463L457.388 33.125ZM461.044 38.7188L458.268 39.8557L458.271 39.865L461.044 38.7188ZM453.106 42.25L450.31 43.3373L450.323 43.3689L450.335 43.4001L453.106 42.25ZM451.294 39.375L449.117 41.4398L449.131 41.4539L449.144 41.4678L451.294 39.375ZM448.575 37.5312L447.393 40.2887L447.427 40.3031L447.461 40.3167L448.575 37.5312ZM441.981 37.5312L443.115 40.3088L443.129 40.3031L443.143 40.2972L441.981 37.5312ZM439.294 39.375L437.117 37.3102L437.116 37.3118L439.294 39.375ZM437.513 42.25L440.302 43.3551L440.305 43.3462L440.309 43.3373L437.513 42.25ZM439.294 52.4375L437.089 54.4723L437.103 54.4874L437.117 54.5023L439.294 52.4375ZM441.981 54.375L440.707 57.0907L440.74 57.1062L440.773 57.1209L441.981 54.375ZM448.575 54.4062L447.413 51.6403L447.403 51.6445L447.393 51.6488L448.575 54.4062ZM453.106 49.6875L450.328 48.5556L450.319 48.5778L450.31 48.6002L453.106 49.6875ZM459.388 45.9688C459.388 48.1018 459.007 50.0429 458.271 51.8225L463.816 54.115C464.872 51.5613 465.388 48.8357 465.388 45.9688H459.388ZM458.275 51.813C457.517 53.6287 456.503 55.1709 455.238 56.4697L459.537 60.6553C461.356 58.7874 462.779 56.6004 463.812 54.1245L458.275 51.813ZM455.252 56.4555C453.986 57.7384 452.492 58.7654 450.742 59.5353L453.158 65.0272C455.575 63.9637 457.706 62.5116 459.523 60.6695L455.252 56.4555ZM450.755 59.5296C449.09 60.2525 447.281 60.625 445.294 60.625V66.625C448.056 66.625 450.685 66.1017 453.145 65.0329L450.755 59.5296ZM445.294 60.625C443.331 60.625 441.517 60.254 439.823 59.5252L437.452 65.0373C439.924 66.1002 442.548 66.625 445.294 66.625V60.625ZM439.856 59.5398C438.123 58.7694 436.618 57.7377 435.321 56.4412L431.079 60.6838C432.907 62.5123 435.027 63.9597 437.419 65.0227L439.856 59.5398ZM435.349 56.4697C434.085 55.1709 433.07 53.6287 432.312 51.813L426.775 54.1245C427.809 56.6004 429.232 58.7874 431.051 60.6553L435.349 56.4697ZM432.316 51.8225C431.58 50.0429 431.2 48.1018 431.2 45.9688H425.2C425.2 48.8357 425.716 51.5613 426.771 54.115L432.316 51.8225ZM431.2 45.9688C431.2 43.7871 431.583 41.8261 432.316 40.0525L426.771 37.76C425.713 40.3197 425.2 43.0671 425.2 45.9688H431.2ZM432.316 40.0525C433.074 38.2196 434.084 36.6876 435.336 35.4195L431.065 31.2055C429.232 33.0624 427.805 35.2596 426.771 37.76L432.316 40.0525ZM435.335 35.4197C436.626 34.1123 438.118 33.0902 439.833 32.3454L437.442 26.8421C435.032 27.889 432.9 29.346 431.065 31.2053L435.335 35.4197ZM439.823 32.3498C441.517 31.621 443.331 31.25 445.294 31.25V25.25C442.548 25.25 439.924 25.7748 437.452 26.8377L439.823 32.3498ZM445.294 31.25C447.3 31.25 449.126 31.609 450.802 32.303L453.098 26.7595C450.649 25.7452 448.037 25.25 445.294 25.25V31.25ZM450.836 32.3167C452.544 33.0001 454.007 33.9702 455.252 35.232L459.523 31.018C457.685 29.1548 455.522 27.7291 453.064 26.7458L450.836 32.3167ZM455.266 35.2463C456.503 36.4836 457.51 38.0052 458.268 39.8557L463.82 37.5818C462.786 35.0573 461.355 32.8497 459.509 31.0037L455.266 35.2463ZM458.271 39.865C458.998 41.6217 459.388 43.6417 459.388 45.9688H465.388C465.388 42.9625 464.882 40.1492 463.816 37.5725L458.271 39.865ZM456.794 45.9688C456.794 44.2578 456.508 42.6192 455.877 41.0999L450.335 43.4001C450.621 44.0891 450.794 44.9297 450.794 45.9688H456.794ZM455.902 41.1627C455.332 39.6974 454.52 38.3879 453.443 37.2822L449.144 41.4678C449.609 41.9454 450.005 42.5526 450.31 43.3373L455.902 41.1627ZM453.47 37.3102C452.401 36.1831 451.132 35.323 449.689 34.7458L447.461 40.3167C448.101 40.5729 448.645 40.9419 449.117 41.4398L453.47 37.3102ZM449.757 34.7738C448.344 34.1682 446.846 33.875 445.294 33.875V39.875C446.075 39.875 446.765 40.0193 447.393 40.2887L449.757 34.7738ZM445.294 33.875C443.741 33.875 442.241 34.1683 440.82 34.7653L443.143 40.2972C443.805 40.0192 444.513 39.875 445.294 39.875V33.875ZM440.848 34.7537C439.426 35.3339 438.176 36.1938 437.117 37.3102L441.47 41.4398C441.953 40.9312 442.495 40.562 443.115 40.3088L440.848 34.7537ZM437.116 37.3118C436.071 38.4143 435.28 39.7142 434.716 41.1627L440.309 43.3373C440.62 42.5358 441.016 41.919 441.472 41.4382L437.116 37.3118ZM434.723 41.1449C434.126 42.6517 433.856 44.2743 433.856 45.9688H439.856C439.856 44.9132 440.024 44.0566 440.302 43.3551L434.723 41.1449ZM433.856 45.9688C433.856 47.6055 434.135 49.182 434.723 50.6676L440.302 48.4574C440.015 47.7347 439.856 46.9153 439.856 45.9688H433.856ZM434.723 50.6676C435.287 52.0894 436.071 53.369 437.089 54.4723L441.498 50.4027C441.017 49.881 440.613 49.2439 440.302 48.4574L434.723 50.6676ZM437.117 54.5023C438.147 55.588 439.35 56.4538 440.707 57.0907L443.256 51.6593C442.571 51.3379 441.982 50.912 441.47 50.3727L437.117 54.5023ZM440.773 57.1209C442.205 57.7511 443.722 58.0625 445.294 58.0625V52.0625C444.532 52.0625 443.841 51.9156 443.189 51.6291L440.773 57.1209ZM445.294 58.0625C446.846 58.0625 448.344 57.7692 449.757 57.1637L447.393 51.6488C446.765 51.9183 446.075 52.0625 445.294 52.0625V58.0625ZM449.737 57.1722C451.141 56.5824 452.385 55.7419 453.443 54.6553L449.144 50.4697C448.661 50.9664 448.092 51.3551 447.413 51.6403L449.737 57.1722ZM453.443 54.6553C454.52 53.5496 455.332 52.2401 455.902 50.7748L450.31 48.6002C450.005 49.3849 449.609 49.9921 449.144 50.4697L453.443 54.6553ZM455.885 50.8194C456.505 49.296 456.794 47.6665 456.794 45.9688H450.794C450.794 46.9793 450.624 47.829 450.328 48.5556L455.885 50.8194ZM504.5 63V66H507.5V63H504.5ZM495.906 63H492.906V66H495.906V63ZM495.906 16.2188V13.2188H492.906V16.2188H495.906ZM504.5 16.2188H507.5V13.2188H504.5V16.2188ZM504.5 60H495.906V66H504.5V60ZM498.906 63V16.2188H492.906V63H498.906ZM495.906 19.2188H504.5V13.2188H495.906V19.2188ZM501.5 16.2188V63H507.5V16.2188H501.5ZM547.894 75.75H544.894V78.7075L547.851 78.7497L547.894 75.75ZM547.894 67.1562L547.933 64.1565L544.894 64.1165V67.1562H547.894ZM552.644 67.2188L552.604 70.2185L552.624 70.2188H552.644V67.2188ZM555.05 66.8125L556.044 69.6429L555.05 66.8125ZM557.175 65.6875L555.424 63.2515L555.406 63.2647L555.387 63.2782L557.175 65.6875ZM558.925 63.9688L556.553 62.1322L556.539 62.1504L556.525 62.1688L558.925 63.9688ZM560.144 61.8438L562.924 62.9709L565.642 56.2657L558.977 59.08L560.144 61.8438ZM557.269 63.0312L556.144 60.2499L556.134 60.2542L556.123 60.2585L557.269 63.0312ZM543.769 59.4375L541.647 61.5588L541.664 61.5751L541.68 61.5912L543.769 59.4375ZM540.55 54.5312L537.762 55.6403L537.77 55.6584L537.777 55.6765L540.55 54.5312ZM539.394 29.5312V26.5312H536.394V29.5312H539.394ZM547.894 29.5312H550.894V26.5312H547.894V29.5312ZM548.394 51.1562L545.582 52.2024L545.597 52.2424L545.613 52.2818L548.394 51.1562ZM549.8 53.375L547.642 55.4588L547.66 55.4777L547.679 55.4963L549.8 53.375ZM551.831 54.6875L550.77 57.4934L550.782 57.498L550.794 57.5025L551.831 54.6875ZM556.831 54.5312L558.202 57.2L558.215 57.193L558.228 57.186L556.831 54.5312ZM560.269 50.6562L563.054 51.7704L563.059 51.7587L563.063 51.7469L560.269 50.6562ZM560.769 29.5312V26.5312H557.769V29.5312H560.769ZM569.362 29.5312H572.362V26.5312H569.362V29.5312ZM569.362 58.7812L572.362 58.8078L572.362 58.7945V58.7812H569.362ZM567.987 65.4062L565.236 64.2111L567.987 65.4062ZM564.3 70.8125L562.193 68.677L562.186 68.6841L562.179 68.6912L564.3 70.8125ZM552.269 75.8125L552.226 78.8122L552.247 78.8125H552.269V75.8125ZM550.894 75.75V67.1562H544.894V75.75H550.894ZM547.854 70.156L552.604 70.2185L552.683 64.219L547.933 64.1565L547.854 70.156ZM552.644 70.2188C553.809 70.2188 554.948 70.0282 556.044 69.6429L554.056 63.9821C553.611 64.1384 553.145 64.2188 552.644 64.2188V70.2188ZM556.044 69.6429C557.095 69.2739 558.071 68.7582 558.963 68.0968L555.387 63.2782C554.987 63.5751 554.547 63.8095 554.056 63.9821L556.044 69.6429ZM558.926 68.1235C559.844 67.4639 560.645 66.6755 561.325 65.7687L556.525 62.1688C556.205 62.5954 555.84 62.9528 555.424 63.2515L558.926 68.1235ZM561.297 65.8053C561.968 64.9387 562.51 63.991 562.924 62.9709L557.364 60.7166C557.152 61.2382 556.882 61.7071 556.553 62.1322L561.297 65.8053ZM558.977 59.08C558.054 59.4696 557.11 59.8596 556.144 60.2499L558.393 65.8126C559.386 65.4112 560.358 65.0095 561.311 64.6075L558.977 59.08ZM556.123 60.2585C555.507 60.5132 554.926 60.625 554.362 60.625V66.625C555.757 66.625 557.114 66.3409 558.414 65.804L556.123 60.2585ZM554.362 60.625C552.662 60.625 551.107 60.3261 549.67 59.748L547.43 65.3145C549.618 66.1947 551.938 66.625 554.362 66.625V60.625ZM549.67 59.748C548.21 59.161 546.947 58.341 545.857 57.2838L541.68 61.5912C543.34 63.2007 545.265 64.4432 547.43 65.3145L549.67 59.748ZM545.89 57.3162C544.838 56.2637 543.976 54.9681 543.323 53.386L537.777 55.6765C538.707 57.9278 539.992 59.9029 541.647 61.5588L545.89 57.3162ZM543.337 53.4222C542.726 51.8862 542.394 50.1033 542.394 48.0312H536.394C536.394 50.7509 536.832 53.3013 537.762 55.6403L543.337 53.4222ZM542.394 48.0312V29.5312H536.394V48.0312H542.394ZM539.394 32.5312H547.894V26.5312H539.394V32.5312ZM544.894 29.5312V48.0312H550.894V29.5312H544.894ZM544.894 48.0312C544.894 49.4926 545.098 50.9018 545.582 52.2024L551.205 50.1101C551.023 49.6191 550.894 48.9449 550.894 48.0312H544.894ZM545.613 52.2818C546.093 53.4691 546.76 54.5458 547.642 55.4588L551.958 51.2912C551.673 50.9958 551.402 50.5934 551.175 50.0307L545.613 52.2818ZM547.679 55.4963C548.562 56.3801 549.601 57.051 550.77 57.4934L552.893 51.8816C552.52 51.7406 552.204 51.5366 551.921 51.2537L547.679 55.4963ZM550.794 57.5025C551.938 57.9239 553.135 58.125 554.362 58.125V52.125C553.799 52.125 553.308 52.0344 552.868 51.8725L550.794 57.5025ZM554.362 58.125C555.709 58.125 557.003 57.8157 558.202 57.2L555.461 51.8625C555.118 52.0384 554.766 52.125 554.362 52.125V58.125ZM558.228 57.186C559.343 56.5994 560.323 55.8286 561.151 54.8818L556.636 50.9307C556.298 51.3173 555.903 51.6297 555.434 51.8765L558.228 57.186ZM561.151 54.8818C561.961 53.9565 562.597 52.9144 563.054 51.7704L557.483 49.5421C557.274 50.0648 556.993 50.5227 556.636 50.9307L561.151 54.8818ZM563.063 51.7469C563.529 50.5534 563.769 49.3091 563.769 48.0312H557.769C557.769 48.5451 557.675 49.0507 557.474 49.5656L563.063 51.7469ZM563.769 48.0312V29.5312H557.769V48.0312H563.769ZM560.769 32.5312H569.362V26.5312H560.769V32.5312ZM566.362 29.5312V58.7812H572.362V29.5312H566.362ZM566.363 58.7547C566.345 60.7259 565.964 62.5348 565.236 64.2111L570.739 66.6014C571.803 64.1527 572.338 61.545 572.362 58.8078L566.363 58.7547ZM565.236 64.2111C564.489 65.9306 563.476 67.4113 562.193 68.677L566.407 72.948C568.249 71.1303 569.694 69.0069 570.739 66.6014L565.236 64.2111ZM562.179 68.6912C560.912 69.9581 559.427 70.9666 557.699 71.7171L560.089 77.2204C562.486 76.1793 564.605 74.7503 566.421 72.9338L562.179 68.6912ZM557.699 71.7171C556.031 72.4415 554.231 72.8125 552.269 72.8125V78.8125C555.014 78.8125 557.632 78.2877 560.089 77.2204L557.699 71.7171ZM552.312 72.8128L547.937 72.7503L547.851 78.7497L552.226 78.8122L552.312 72.8128Z" fill="#DDA382"/>
</g>
<path fill-rule="evenodd" clip-rule="evenodd" d="M676.998 35.1115C676.999 35.0005 677 34.8893 677 34.7779C677 19.9889 664.24 8 648.5 8C632.76 8 620 19.9889 620 34.7779C620 34.8895 620.001 35.001 620.002 35.1122C619.865 45.4284 626.185 55.752 648.586 81.1873C670.853 55.7514 677.134 45.4279 676.998 35.1115Z" fill="#DDA382"/>
<ellipse cx="648.672" cy="34.6919" rx="23.8505" ry="21.5257" fill="#071E31"/>
<ellipse cx="648.672" cy="23.4652" rx="10.7628" ry="4.82175" fill="#DDA382"/>
<path fill-rule="evenodd" clip-rule="evenodd" d="M640.338 43.5621L648.242 43.5621L649.12 43.5621L657.024 43.5621V45.8869C657.21 46.9756 657.622 47.1328 658.574 47.0923H662.535C663.541 47.0694 663.911 46.8564 663.999 45.8869V35.6406C663.785 34.4485 663.625 33.7967 662.535 32.9714H665.29C665.462 30.2297 664.34 30.2843 662.503 30.3736C662.401 30.3786 662.297 30.3837 662.19 30.3884L659.177 22.3808C656.558 20.6289 654.18 20.1177 649.464 20.0601L649.465 20.056C649.197 20.0546 648.935 20.054 648.681 20.0546C648.426 20.054 648.165 20.0546 647.897 20.056L647.897 20.0601C643.182 20.1177 640.804 20.6289 638.185 22.3808L635.171 30.3884C635.065 30.3837 634.961 30.3786 634.858 30.3736C633.021 30.2843 631.9 30.2297 632.072 32.9714H634.827C633.736 33.7967 633.577 34.4485 633.363 35.6406V45.8869C633.451 46.8564 633.821 47.0694 634.827 47.0923H638.788C639.74 47.1328 640.152 46.9756 640.338 45.8869V43.5621ZM647.918 21.4698C645.527 21.5419 643.102 22.1527 640.062 23.3279L637.823 30.1301C641.769 30.4601 644.903 30.6291 648.053 30.639C648.471 30.6403 648.889 30.6388 649.31 30.6345C652.266 30.6043 655.331 30.4357 659.177 30.1301L656.938 23.328C654.04 22.2605 651.703 21.6429 649.443 21.4965C648.943 21.4641 648.446 21.4548 647.948 21.4689C647.938 21.4692 647.928 21.4695 647.918 21.4698Z" fill="#DDA382"/>
<path d="M648.242 43.5621V43.3038V43.5621ZM640.338 43.5621V43.3038C640.195 43.3038 640.079 43.4194 640.079 43.5621H640.338ZM649.12 43.5621V43.8204V43.5621ZM657.024 43.5621H657.283C657.283 43.4936 657.255 43.4279 657.207 43.3794C657.158 43.331 657.093 43.3038 657.024 43.3038V43.5621ZM657.024 45.8869H656.766C656.766 45.9014 656.767 45.9159 656.77 45.9303L657.024 45.8869ZM658.574 47.0923V46.8337L658.563 46.8342L658.574 47.0923ZM662.535 47.0923V47.3507L662.541 47.3505L662.535 47.0923ZM663.999 45.8869L664.256 45.9101C664.257 45.9024 664.257 45.8946 664.257 45.8869H663.999ZM663.999 35.6406H664.257C664.257 35.6254 664.255 35.6101 664.253 35.5951L663.999 35.6406ZM662.535 32.9714V32.7131C662.424 32.7131 662.325 32.784 662.29 32.8892C662.255 32.9945 662.29 33.1105 662.379 33.1774L662.535 32.9714ZM665.29 32.9714V33.2298C665.426 33.2298 665.539 33.1237 665.548 32.9876L665.29 32.9714ZM662.503 30.3736L662.491 30.1156H662.491L662.503 30.3736ZM662.19 30.3884L661.949 30.4793C661.988 30.5839 662.09 30.6514 662.202 30.6464L662.19 30.3884ZM659.177 22.3808L659.419 22.2898C659.4 22.2394 659.365 22.1961 659.32 22.1661L659.177 22.3808ZM649.464 20.0601L649.206 20.0563C649.205 20.1249 649.231 20.1911 649.279 20.2403C649.327 20.2894 649.393 20.3175 649.461 20.3184L649.464 20.0601ZM649.465 20.056L649.723 20.0598C649.724 19.9909 649.697 19.9244 649.649 19.8752C649.601 19.826 649.535 19.7981 649.466 19.7977L649.465 20.056ZM648.681 20.0546L648.68 20.3129L648.681 20.3129L648.681 20.0546ZM647.897 20.056L647.896 19.7977C647.827 19.7981 647.761 19.826 647.713 19.8752C647.665 19.9244 647.638 19.9909 647.639 20.0598L647.897 20.056ZM647.897 20.0601L647.901 20.3184C647.969 20.3175 648.035 20.2894 648.082 20.2403C648.13 20.1911 648.157 20.1249 648.156 20.0563L647.897 20.0601ZM638.185 22.3808L638.041 22.1661C637.997 22.1961 637.962 22.2394 637.943 22.2898L638.185 22.3808ZM635.171 30.3884L635.16 30.6464C635.272 30.6514 635.374 30.5839 635.413 30.4793L635.171 30.3884ZM634.858 30.3736L634.871 30.1156H634.871L634.858 30.3736ZM632.072 32.9714L631.814 32.9876C631.822 33.1237 631.935 33.2298 632.072 33.2298V32.9714ZM634.827 32.9714L634.983 33.1774C635.071 33.1105 635.107 32.9945 635.072 32.8892C635.037 32.784 634.938 32.7131 634.827 32.7131V32.9714ZM633.363 35.6406L633.109 35.5951C633.106 35.6101 633.105 35.6254 633.105 35.6406H633.363ZM633.363 45.8869H633.105C633.105 45.8946 633.105 45.9024 633.106 45.9101L633.363 45.8869ZM634.827 47.0923L634.821 47.3506H634.827V47.0923ZM638.788 47.0923L638.799 46.834H638.788V47.0923ZM640.338 45.8869L640.592 45.9303C640.595 45.9159 640.596 45.9014 640.596 45.8869H640.338ZM647.918 21.4698L647.926 21.728L647.918 21.4698ZM640.062 23.3279L639.969 23.087C639.897 23.1149 639.841 23.1737 639.817 23.2472L640.062 23.3279ZM637.823 30.1301L637.578 30.0493C637.553 30.1244 637.564 30.2067 637.608 30.2726C637.652 30.3386 637.723 30.3809 637.802 30.3875L637.823 30.1301ZM648.053 30.639L648.053 30.3807L648.053 30.639ZM649.31 30.6345L649.307 30.3762L649.31 30.6345ZM659.177 30.1301L659.197 30.3876C659.276 30.3813 659.348 30.3391 659.392 30.2731C659.436 30.2071 659.447 30.1246 659.422 30.0493L659.177 30.1301ZM656.938 23.328L657.183 23.2472C657.159 23.1723 657.101 23.1128 657.027 23.0856L656.938 23.328ZM649.443 21.4965L649.427 21.7543L649.443 21.4965ZM647.948 21.4689L647.955 21.7271L647.948 21.4689ZM648.242 43.3038L640.338 43.3038V43.8204L648.242 43.8204V43.3038ZM648.242 43.8204L649.12 43.8204V43.3038L648.242 43.3038V43.8204ZM649.12 43.8204L657.024 43.8204V43.3038L649.12 43.3038V43.8204ZM656.766 43.5621V45.8869H657.283V43.5621H656.766ZM656.77 45.9303C656.865 46.4917 657.03 46.8931 657.364 47.1252C657.688 47.35 658.111 47.3705 658.585 47.3504L658.563 46.8342C658.085 46.8546 657.826 46.8167 657.659 46.7009C657.503 46.5923 657.369 46.3707 657.279 45.8434L656.77 45.9303ZM658.574 47.3506H662.535V46.834H658.574V47.3506ZM662.541 47.3505C663.044 47.3391 663.467 47.2827 663.769 47.0489C664.086 46.8039 664.21 46.4153 664.256 45.9101L663.741 45.8636C663.699 46.328 663.595 46.5307 663.453 46.6402C663.297 46.761 663.032 46.8226 662.529 46.8341L662.541 47.3505ZM664.257 45.8869V35.6406H663.74V45.8869H664.257ZM664.253 35.5951C664.147 35.0027 664.049 34.5072 663.828 34.0551C663.602 33.5943 663.259 33.1955 662.691 32.7655L662.379 33.1774C662.901 33.5727 663.183 33.9124 663.363 34.2819C663.548 34.66 663.637 35.0864 663.744 35.6862L664.253 35.5951ZM662.535 33.2298H665.29V32.7131H662.535V33.2298ZM665.548 32.9876C665.634 31.6081 665.409 30.7966 664.791 30.3944C664.493 30.2008 664.136 30.1251 663.756 30.0986C663.377 30.0721 662.946 30.0935 662.491 30.1156L662.516 30.6316C662.98 30.6091 663.378 30.5901 663.72 30.614C664.062 30.6378 664.318 30.7031 664.509 30.8274C664.868 31.061 665.118 31.5931 665.032 32.9553L665.548 32.9876ZM662.491 30.1156C662.389 30.1206 662.285 30.1256 662.179 30.1303L662.202 30.6464C662.309 30.6417 662.414 30.6366 662.516 30.6316L662.491 30.1156ZM662.432 30.2974L659.419 22.2898L658.935 22.4718L661.949 30.4793L662.432 30.2974ZM659.32 22.1661C656.641 20.3739 654.205 19.8597 649.468 19.8018L649.461 20.3184C654.155 20.3758 656.474 20.8838 659.033 22.5955L659.32 22.1661ZM649.206 20.0523L649.206 20.0563L649.723 20.0639L649.723 20.0598L649.206 20.0523ZM648.681 20.3129C648.935 20.3124 649.196 20.3129 649.463 20.3143L649.466 19.7977C649.197 19.7962 648.936 19.7957 648.68 19.7963L648.681 20.3129ZM648.681 19.7963C648.426 19.7957 648.164 19.7962 647.896 19.7977L647.899 20.3143C648.166 20.3129 648.426 20.3124 648.68 20.3129L648.681 19.7963ZM647.639 20.0598L647.639 20.0639L648.156 20.0563L648.156 20.0523L647.639 20.0598ZM638.329 22.5955C640.887 20.8838 643.207 20.3758 647.901 20.3184L647.894 19.8018C643.157 19.8597 640.721 20.3739 638.041 22.1661L638.329 22.5955ZM635.413 30.4793L638.427 22.4718L637.943 22.2898L634.93 30.2974L635.413 30.4793ZM634.846 30.6316C634.948 30.6366 635.053 30.6417 635.16 30.6464L635.183 30.1303C635.077 30.1256 634.973 30.1206 634.871 30.1156L634.846 30.6316ZM632.33 32.9553C632.244 31.5931 632.494 31.061 632.853 30.8274C633.044 30.7031 633.3 30.6378 633.642 30.614C633.984 30.5901 634.382 30.6091 634.846 30.6316L634.871 30.1156C634.416 30.0935 633.985 30.0721 633.606 30.0986C633.226 30.1251 632.868 30.2008 632.571 30.3944C631.953 30.7966 631.727 31.6081 631.814 32.9876L632.33 32.9553ZM634.827 32.7131H632.072V33.2298H634.827V32.7131ZM633.618 35.6862C633.725 35.0864 633.814 34.66 633.998 34.2819C634.179 33.9124 634.461 33.5727 634.983 33.1774L634.671 32.7655C634.103 33.1955 633.759 33.5943 633.534 34.0551C633.313 34.5072 633.215 35.0027 633.109 35.5951L633.618 35.6862ZM633.622 45.8869V35.6406H633.105V45.8869H633.622ZM634.833 46.8341C634.33 46.8226 634.065 46.761 633.909 46.6402C633.767 46.5307 633.663 46.328 633.621 45.8636L633.106 45.9101C633.152 46.4153 633.276 46.8039 633.593 47.0489C633.895 47.2827 634.318 47.3391 634.821 47.3505L634.833 46.8341ZM638.788 46.834H634.827V47.3506H638.788V46.834ZM640.083 45.8434C639.993 46.3707 639.859 46.5923 639.703 46.7009C639.536 46.8167 639.277 46.8546 638.799 46.8342L638.777 47.3504C639.251 47.3705 639.674 47.35 639.997 47.1252C640.332 46.8932 640.496 46.4917 640.592 45.9303L640.083 45.8434ZM640.079 43.5621V45.8869H640.596V43.5621H640.079ZM647.91 21.2116C645.479 21.285 643.023 21.9062 639.969 23.087L640.155 23.5689C643.18 22.3991 645.575 21.7989 647.926 21.728L647.91 21.2116ZM639.817 23.2472L637.578 30.0493L638.069 30.2108L640.307 23.4087L639.817 23.2472ZM637.802 30.3875C641.751 30.7178 644.893 30.8874 648.052 30.8973L648.053 30.3807C644.913 30.3709 641.786 30.2023 637.845 29.8727L637.802 30.3875ZM648.052 30.8973C648.471 30.8986 648.89 30.8971 649.312 30.8928L649.307 30.3762C648.887 30.3805 648.47 30.382 648.053 30.3807L648.052 30.8973ZM659.156 29.8726C655.314 30.178 652.255 30.3461 649.307 30.3762L649.312 30.8928C652.277 30.8626 655.349 30.6935 659.197 30.3876L659.156 29.8726ZM656.693 23.4087L658.931 30.2108L659.422 30.0493L657.183 23.2472L656.693 23.4087ZM649.427 21.7543C651.65 21.8983 653.961 22.5068 656.849 23.5703L657.027 23.0856C654.119 22.0143 651.755 21.3874 649.46 21.2388L649.427 21.7543ZM649.46 21.2388C648.952 21.2058 648.447 21.1964 647.94 21.2107L647.955 21.7271C648.445 21.7133 648.934 21.7224 649.427 21.7543L649.46 21.2388ZM647.94 21.2107C647.93 21.211 647.92 21.2113 647.91 21.2116L647.926 21.728C647.936 21.7277 647.945 21.7274 647.955 21.7271L647.94 21.2107Z" fill="#DDA382"/>
<path fill-rule="evenodd" clip-rule="evenodd" d="M657.455 40.3746C659.119 40.3746 660.468 39.2952 660.468 37.9637C660.468 36.6322 659.119 35.5528 657.455 35.5528C655.79 35.5528 654.441 36.6322 654.441 37.9637C654.441 39.2952 655.79 40.3746 657.455 40.3746ZM639.89 40.3746C641.554 40.3746 642.903 39.2952 642.903 37.9637C642.903 36.6322 641.554 35.5529 639.89 35.5529C638.225 35.5529 636.876 36.6322 636.876 37.9637C636.876 39.2952 638.225 40.3746 639.89 40.3746Z" fill="#071E31"/>
<ellipse cx="648.5" cy="24.7901" rx="8.52417" ry="4.90785" fill="#071E31"/>
<path d="M641 23L639.5 27.5L641.5 28L641 23Z" fill="#071E31" stroke="#071E31"/>
<path d="M657.5 27.5L656 23.5L655.5 27.5H657.5Z" fill="#071E31" stroke="#071E31"/>
<path fill-rule="evenodd" clip-rule="evenodd" d="M657.455 40.3746C659.119 40.3746 660.468 39.2952 660.468 37.9637C660.468 36.6322 659.119 35.5528 657.455 35.5528C655.79 35.5528 654.441 36.6322 654.441 37.9637C654.441 39.2952 655.79 40.3746 657.455 40.3746ZM639.89 40.3746C641.554 40.3746 642.903 39.2952 642.903 37.9637C642.903 36.6322 641.554 35.5529 639.89 35.5529C638.225 35.5529 636.876 36.6322 636.876 37.9637C636.876 39.2952 638.225 40.3746 639.89 40.3746Z" fill="#071E31"/>
</g>
<defs>
<filter id="filter0_di_63_1360" x="97.075" y="16.2188" width="476.288" height="67.5938" filterUnits="userSpaceOnUse" color-interpolation-filters="sRGB">
<feFlood flood-opacity="0" result="BackgroundImageFix"/>
<feColorMatrix in="SourceAlpha" type="matrix" values="0 0 0 0 0 0 0 0 0 0 0 0 0 0 0 0 0 0 127 0" result="hardAlpha"/>
<feOffset dy="4"/>
<feGaussianBlur stdDeviation="2"/>
<feComposite in2="hardAlpha" operator="out"/>
<feColorMatrix type="matrix" values="0 0 0 0 0 0 0 0 0 0 0 0 0 0 0 0 0 0 0.25 0"/>
<feBlend mode="normal" in2="BackgroundImageFix" result="effect1_dropShadow_63_1360"/>
<feBlend mode="normal" in="SourceGraphic" in2="effect1_dropShadow_63_1360" result="shape"/>
<feColorMatrix in="SourceAlpha" type="matrix" values="0 0 0 0 0 0 0 0 0 0 0 0 0 0 0 0 0 0 127 0" result="hardAlpha"/>
<feOffset dy="4"/>
<feGaussianBlur stdDeviation="2"/>
<feComposite in2="hardAlpha" operator="arithmetic" k2="-1" k3="1"/>
<feColorMatrix type="matrix" values="0 0 0 0 0 0 0 0 0 0 0 0 0 0 0 0 0 0 0.25 0"/>
<feBlend mode="normal" in2="shape" result="effect2_innerShadow_63_1360"/>
</filter>
<clipPath id="clip0_63_1360">
<rect width="728" height="90" fill="white"/>
</clipPath>
</defs>
</svg>
